<?xml version="1.0" encoding="UTF-8" standalone="no"?>
<!-- Created with Inkscape (http://www.inkscape.org/) -->

<svg
   width="210mm"
   height="297mm"
   viewBox="0 0 210 297"
   version="1.1"
   id="svg1"
   inkscape:version="1.4.2 (ebf0e94, 2025-05-08)"
   sodipodi:docname="rajz.svg"
   xmlns:inkscape="http://www.inkscape.org/namespaces/inkscape"
   xmlns:sodipodi="http://sodipodi.sourceforge.net/DTD/sodipodi-0.dtd"
   xmlns:xlink="http://www.w3.org/1999/xlink"
   xmlns="http://www.w3.org/2000/svg"
   xmlns:svg="http://www.w3.org/2000/svg">
  <sodipodi:namedview
     id="namedview1"
     pagecolor="#ffffff"
     bordercolor="#000000"
     borderopacity="0.25"
     inkscape:showpageshadow="2"
     inkscape:pageopacity="0.0"
     inkscape:pagecheckerboard="0"
     inkscape:deskcolor="#d1d1d1"
     inkscape:document-units="mm"
     inkscape:zoom="2.8284271"
     inkscape:cx="359.21025"
     inkscape:cy="536.87083"
     inkscape:window-width="1920"
     inkscape:window-height="1009"
     inkscape:window-x="1912"
     inkscape:window-y="-8"
     inkscape:window-maximized="1"
     inkscape:current-layer="layer1" />
  <defs
     id="defs1">
    <linearGradient
       id="linearGradient13"
       inkscape:collect="always">
      <stop
         style="stop-color:#7c7cee;stop-opacity:1;"
         offset="0"
         id="stop13" />
      <stop
         style="stop-color:#ffb04d;stop-opacity:1;"
         offset="1"
         id="stop14" />
    </linearGradient>
    <linearGradient
       id="linearGradient30"
       inkscape:collect="always">
      <stop
         style="stop-color:#ff0000;stop-opacity:1;"
         offset="0"
         id="stop30" />
      <stop
         style="stop-color:#ff0000;stop-opacity:0;"
         offset="1"
         id="stop31" />
    </linearGradient>
    <inkscape:path-effect
       effect="fillet_chamfer"
       id="path-effect28"
       is_visible="true"
       lpeversion="1"
       nodesatellites_param="F,0,0,1,0,0,0,1 @ F,0,0,1,0,10.928394,0,1 @ F,0,0,1,0,0,0,1"
       radius="0"
       unit="px"
       method="auto"
       mode="F"
       chamfer_steps="1"
       flexible="false"
       use_knot_distance="true"
       apply_no_radius="true"
       apply_with_radius="true"
       only_selected="false"
       hide_knots="false" />
    <linearGradient
       inkscape:collect="always"
       xlink:href="#linearGradient30"
       id="linearGradient31"
       x1="-160.25667"
       y1="-9.8628788"
       x2="-101.08577"
       y2="-9.8628788"
       gradientUnits="userSpaceOnUse" />
    <linearGradient
       inkscape:collect="always"
       xlink:href="#linearGradient13"
       id="linearGradient14"
       x1="82.743113"
       y1="107.709"
       x2="97.702718"
       y2="107.709"
       gradientUnits="userSpaceOnUse" />
  </defs>
  <g
     inkscape:label="Réteg 1"
     inkscape:groupmode="layer"
     id="layer1">
    <path
       id="rect2"
       style="fill:#000080;stroke-width:0.264583"
       d="M 31.748966 34.871773 L 31.748966 106.17646 L 173.83797 106.17646 L 173.83797 34.871773 L 31.748966 34.871773 z " />
    <rect
       style="fill:url(#linearGradient31);stroke-width:0.477652"
       id="rect3"
       width="59.170902"
       height="53.600124"
       x="-160.25667"
       y="-36.662941"
       ry="24.543213"
       transform="matrix(-0.8562626,-0.51654076,0.98963237,-0.14362371,0,0)" />
    <rect
       style="fill:#ffffff;stroke-width:0.264583"
       id="rect4"
       width="139.11525"
       height="6.9925652"
       x="33.30669"
       y="41.035313"
       ry="3.4962826" />
    <rect
       style="fill:#ffffff;stroke-width:0.264583"
       id="rect5"
       width="139.11525"
       height="6.9925652"
       x="33.30669"
       y="41.035313"
       ry="3.4962826" />
    <rect
       style="fill:#ffffff;stroke-width:0.264583"
       id="rect4-1"
       width="139.11525"
       height="6.9925652"
       x="33.169464"
       y="95.069946"
       ry="3.4962826" />
    <rect
       style="fill:#ffffff;stroke-width:0.264583"
       id="rect6"
       width="32.570633"
       height="2.0241635"
       x="53.732342"
       y="111.88104"
       ry="1.0120817" />
    <g
       id="g8">
      <circle
         style="fill:#decd87;stroke-width:0.264583"
         id="path7"
         cx="31.650557"
         cy="18.401487"
         r="10.149217" />
      <ellipse
         style="fill:#decd87;stroke-width:0.264583"
         id="path8"
         cx="34.778812"
         cy="49.592007"
         rx="6.9925652"
         ry="27.326208" />
    </g>
    <rect
       style="fill:#a05a2c;stroke-width:0.264583"
       id="rect8"
       width="9.2007437"
       height="110.40892"
       x="28.522305"
       y="45.267658"
       ry="1.0120817" />
    <g
       id="g11"
       transform="matrix(1.102459,0,0,1.0983606,-59.007685,-52.28134)">
      <circle
         style="fill:#a05a2c;stroke-width:0.264583"
         id="path9"
         cx="109.85686"
         cy="166.71748"
         r="22.449814" />
      <circle
         style="fill:#e3e2db;stroke-width:0.264583"
         id="path10"
         cx="109.87975"
         cy="166.94725"
         r="20.181101" />
    </g>
    <path
       style="fill:#0000ff;stroke-width:0.264583"
       id="path11"
       sodipodi:type="arc"
       sodipodi:cx="159.4489"
       sodipodi:cy="153.37639"
       sodipodi:rx="27.694237"
       sodipodi:ry="28.614311"
       sodipodi:start="4.8542507"
       sodipodi:end="2.8652772"
       sodipodi:arc-type="slice"
       d="m 163.36449,125.04952 a 27.694237,28.614311 0 0 1 23.77856,28.39753 27.694237,28.614311 0 0 1 -23.91401,28.27584 27.694237,28.614311 0 0 1 -30.42386,-20.54015 l 26.64372,-7.80635 z" />
    <path
       style="fill:#ff6600;stroke-width:0.264583"
       id="path11-2"
       sodipodi:type="arc"
       sodipodi:cx="-202.67612"
       sodipodi:cy="77.222153"
       sodipodi:rx="30.822489"
       sodipodi:ry="30.638475"
       sodipodi:start="4.8542507"
       sodipodi:end="0.58801177"
       sodipodi:arc-type="slice"
       d="m -198.31824,46.891456 a 30.822489,30.638475 0 0 1 23.77999,17.824631 30.822489,30.638475 0 0 1 -2.49216,29.501468 l -25.64571,-16.995402 z"
       transform="rotate(-115.28982)" />
    <path
       sodipodi:type="star"
       style="opacity:0.5;fill:#ff6600;stroke-width:0.264583"
       id="path15"
       inkscape:flatsided="true"
       sodipodi:sides="6"
       sodipodi:cx="98.079926"
       sodipodi:cy="115.92937"
       sodipodi:r1="13.79498"
       sodipodi:r2="6.89749"
       sodipodi:arg1="0.80426385"
       sodipodi:arg2="1.3278626"
       inkscape:rounded="0"
       inkscape:randomized="0"
       d="m 107.6487,125.86617 -13.389912,3.3184 -9.568773,-9.9368 3.821137,-13.25521 13.389908,-3.3184 9.56878,9.93681 z"
       inkscape:transform-center-x="0.38373269"
       inkscape:transform-center-y="-0.86859575"
       transform="rotate(14.371345,14.824444,65.481465)" />
    <path
       style="fill:#ff0000;stroke-width:0.264583"
       id="path17"
       d="m 69.656098,184.79724 c -2.911626,1.61932 -5.382395,3.79147 -7.736985,6.14243 -1.858807,1.85594 -3.667112,3.76549 -5.393325,5.74535 -6.10739,7.00479 -7.735983,9.58151 -13.406149,17.29621 -5.210654,7.81077 -8.027826,11.73678 -12.660556,19.82435 -3.208917,5.60195 -6.063524,11.32506 -8.676521,17.22271 -1.965358,4.43589 -2.981006,7.30803 -4.62606,11.69713 6.915944,-1.92785 -3.053951,3.78846 -1.619395,4.08619 1.235898,0.25649 3.052742,0.83042 3.781404,-0.20026 1.283515,-1.81549 0.683595,-4.39391 1.020315,-6.59165 2.10053,-13.70997 1.261184,-8.07297 3.371087,-23.39583 0.595467,-4.86105 1.214336,-9.71929 1.786402,-14.58315 0.562771,-4.78487 1.136631,-9.56895 1.61807,-14.36268 0.442515,-4.40615 0.801671,-8.82045 1.153565,-13.23476 0.462147,-5.79736 0.998746,-13.93123 1.290296,-19.91944 0.104105,-2.13823 0.159618,-4.27855 0.239426,-6.41782 -1.87e-4,-1.43291 0.07302,-2.8677 -5.29e-4,-4.29871 -0.109331,-2.12596 -0.759999,-4.44986 -4.534233,-3.12239 -1.126144,0.39609 -1.054419,2.14547 -1.485549,3.25866 -1.703958,4.3997 -2.739695,8.24628 -4.106204,12.81567 -1.495683,6.08569 -2.574141,9.72818 -3.377419,15.949 -0.318529,2.46679 -0.618606,4.95294 -0.572742,7.43979 0.07598,4.12001 0.727065,8.61769 3.672765,11.83859 1.609119,1.75944 3.883336,2.76755 5.825003,4.15133 3.664352,1.33941 7.201488,3.09873 10.993054,4.01824 6.699909,1.62484 18.183344,1.75566 24.783891,1.74546 4.42632,-0.007 8.851254,-0.182 13.274307,-0.35223 8.440147,-0.32485 13.126545,-0.70678 21.30502,-1.2756 0,0 -1.777963,-1.26916 -1.777963,-1.26916 v 0 c -3.06949,0.30343 -6.134373,0.65779 -9.208471,0.91028 -7.87473,0.64678 -16.878596,1.19712 -24.732768,1.15318 -4.516398,-0.0253 -9.040985,-0.11304 -13.539671,-0.51341 -9.033201,-0.80393 -10.968876,-1.52683 -18.639846,-3.44795 -1.898771,-1.32067 -4.11321,-2.2758 -5.696318,-3.96201 -3.010963,-3.20704 -3.822084,-7.6405 -3.986847,-11.81925 -0.09831,-2.49335 0.157822,-4.99445 0.454402,-7.47205 0.783276,-6.5434 1.797047,-9.50123 3.469454,-15.86079 1.737305,-5.08198 2.431612,-7.75023 4.752842,-12.39277 0.499343,-0.9987 1.854798,-1.73864 1.758458,-2.85106 -0.09306,-1.07447 -1.163648,-2.10184 -2.210027,-2.36309 -2.125557,-0.53069 7.869404,9.52295 1.135835,6.47352 0.05622,2.20629 0.157594,4.4119 0.168666,6.61889 0.104958,20.92076 -1.85979,41.80435 -5.113097,62.45741 -0.759212,4.27597 -1.438875,8.56682 -2.277635,12.8279 -0.656747,3.33641 -1.392291,6.65833 -2.207892,9.9595 -1.487146,6.01928 -3.557017,5.61598 0.957378,9.89794 1.100782,1.0441 -3.246523,-11.16162 0.860618,-4.4695 1.484542,-4.85047 2.058442,-7.02482 4.03486,-11.99853 1.093157,-2.75096 2.236704,-5.48468 3.49973,-8.1619 4.832273,-10.24293 10.755013,-19.91616 17.342146,-29.11953 6.04924,-7.82345 7.362684,-9.99152 14.016177,-16.89452 1.841963,-1.91104 3.777446,-3.7348 5.77999,-5.47685 2.493542,-2.16917 4.322905,-3.49447 7.105666,-4.91427 0.43747,-0.2232 0.913646,-0.36063 1.370467,-0.54094 z" />
    <path
       style="fill:#ff0000;stroke-width:0.264583"
       id="path18"
       d="m 62.277127,208.9176 c -0.157898,0.17201 -0.331978,0.33047 -0.473692,0.51604 -1.21857,1.59567 -1.812705,3.69755 -2.238639,5.62892 -0.09019,1.96281 -0.308578,1.63268 3.534788,2.8034 0.288867,0.088 0.291735,-0.52968 0.413758,-0.8059 0.129104,-0.29225 0.228182,-0.59687 0.338408,-0.89675 0.106336,-0.28929 0.165055,-0.59935 0.311255,-0.87068 0.07477,-0.13876 0.224507,-0.22131 0.336759,-0.33197 1.176542,1.06435 -0.774882,-0.741 -2.761321,-1.2618 -0.307157,-0.0805 0.331126,0.54214 0.485045,0.81988 0.383982,0.69287 0.726374,1.46777 1.186778,2.11742 0.219562,0.30982 0.490252,0.58002 0.735377,0.87003 1.508181,0.67823 2.891859,1.77211 4.524545,2.03468 0.545351,0.0877 4.29497,-2.48715 4.365947,-2.53485 8.575503,-5.7623 -3.32387,2.15812 4.372401,-3.05318 0.540645,-0.36608 1.098706,-0.70576 1.648061,-1.05864 0.832892,-0.45312 1.76262,-1.11346 2.780048,-0.94719 0.329711,0.0539 0.537282,0.24454 0.823468,0.38632 0.143463,0.0711 0.294175,0.12646 0.441262,0.18969 0.14311,0.0405 0.281239,0.10776 0.429334,0.1216 0.259247,0.0242 0.800449,-0.0806 0.844539,-0.42677 0.01683,-0.13205 0.04188,-0.32509 -0.07282,-0.39264 -1.22814,-0.72333 -2.552128,-1.26994 -3.828192,-1.90492 -0.191704,0.066 -0.395127,0.10476 -0.575115,0.19813 -0.769519,0.39917 -1.651658,1.36721 -1.905656,2.20717 -0.05029,0.1663 -0.0289,0.34627 -0.04335,0.51941 1.243896,0.75201 2.362763,1.76733 3.731694,2.25603 0.36563,0.13053 0.701701,-0.3393 1.021752,-0.55905 1.208167,-0.82955 2.56232,-2.11337 3.624543,-3.03748 3.021094,-2.62829 2.282999,-1.98466 5.409414,-4.53467 0.727596,-0.56736 3.583778,-2.87034 4.592264,-3.40072 0.453017,-0.23825 1.769417,-0.0102 1.474536,-0.42852 -0.502975,-0.7136 -1.643589,-1.29669 -2.442686,-0.94505 -0.569304,0.25052 0.410803,1.18041 0.513937,1.79378 0.134734,0.80133 0.130818,1.61987 0.196226,2.4298 0.01421,0.42336 0.105537,4.13904 0.245353,4.68764 0.627343,2.46151 3.40432,3.33561 5.617522,3.94582 1.00807,0.27794 4.35952,-1.13489 5.09178,-1.40443 1.46222,-0.44073 3.50839,-1.76163 5.1598,-1.28345 0.23875,0.0691 0.84257,0.52408 0.61849,0.41652 -2.85913,-1.37239 -3.55914,-2.3889 -2.61299,-1.15289 0.82301,1.17585 2.8,3.2612 3.87557,2.18992 0.26159,-0.26054 0.32915,-0.84132 0.41521,-1.17819 0,0 -3.42177,-1.86324 -3.42177,-1.86324 v 0 c -0.0518,0.16812 -0.10069,0.33713 -0.15528,0.50435 -0.0317,0.0971 -0.0656,0.19367 -0.10357,0.28857 -0.0131,0.0328 -0.0546,-0.12101 -0.0241,-0.1033 1.08191,0.62618 2.12721,1.31454 3.21261,1.93468 0.0879,0.0502 -0.14006,-0.14611 -0.21008,-0.21917 -1.08986,-1.58361 -0.35259,-0.62206 -3.98961,-2.81234 -0.2052,-0.12358 -0.4405,-0.21459 -0.67919,-0.23479 -1.638,-0.13865 -3.46397,1.15161 -4.9477,1.57681 -0.89087,0.2932 -1.75573,0.68219 -2.67259,0.87959 -0.79882,0.17198 -1.982078,-0.4544 -2.44135,0.22144 -0.358936,0.5282 0.78672,1.44726 1.40794,1.29927 0.54997,-0.13102 -0.769352,-0.87194 -0.942366,-1.41018 -0.23795,-0.74024 -0.271018,-4.04631 -0.289218,-4.69779 -0.0035,-0.10786 -0.03636,-4.02548 -0.374481,-4.37001 -1.133623,-1.15517 -2.596862,-2.02459 -4.1222,-2.56573 -0.471869,-0.16741 -0.947397,0.34783 -1.369246,0.61752 -0.740291,0.47325 -3.965167,3.14525 -4.429566,3.52441 -2.078162,1.68775 -3.435324,2.80171 -5.534412,4.45964 -0.738621,0.58338 -1.464281,1.18463 -2.228749,1.73372 -0.519734,0.3733 -1.047938,0.74313 -1.61971,1.03045 -0.290936,0.1462 -1.15638,0.0116 -0.942385,0.25703 0.750424,0.86056 1.892326,1.27824 2.838489,1.91736 -0.02593,-0.12497 -0.100496,-0.24932 -0.07778,-0.37492 0.128846,-0.71236 1.067496,-1.67051 1.735645,-1.90738 0.168955,-0.0599 0.35429,-0.0549 0.531437,-0.0823 -1.005258,-0.61921 -2.066057,-1.1562 -3.015768,-1.85763 -0.09116,-0.0673 0.204361,-0.0983 0.309178,-0.14139 0.0074,-0.003 0.03148,0.003 0.02365,0.005 -0.326776,0.0776 -0.608732,-0.0145 -0.911701,-0.15161 -0.431308,-0.19432 -0.865217,-0.42823 -1.356625,-0.40243 -1.017791,0.0534 -1.863582,0.72216 -2.680345,1.24654 -0.522243,0.37439 -1.047983,0.74395 -1.566725,1.12317 -1.585479,1.15906 -2.615864,1.99785 -4.300564,3.06906 -0.798925,0.508 -1.599001,1.02245 -2.451357,1.43456 -0.643167,0.31097 -2.001409,0.0115 -2.016606,0.7257 -0.01834,0.86114 1.310314,1.11832 1.965473,1.67748 -0.864547,-0.90141 -0.787122,-0.70745 -1.41256,-1.83698 -0.188706,-0.3408 -0.346827,-0.6977 -0.514612,-1.04926 -0.135139,-0.28316 -0.148138,-0.66 -0.3941,-0.85479 -3.336861,-2.64265 -2.36116,-2.81938 -4.153341,-2.27505 -0.113237,0.16211 -0.254612,0.30783 -0.339712,0.48632 -0.130567,0.27384 -0.201054,0.57247 -0.30158,0.85871 -0.11757,0.27747 -0.218882,0.56241 -0.352714,0.83241 -0.07394,0.14917 -0.393731,0.31127 -0.268602,0.42108 0.922856,0.80991 1.941044,1.55216 3.069212,2.03677 0.228041,0.0979 -0.03738,-0.49497 -0.05607,-0.74246 0.06086,-0.35342 0.09942,-0.71142 0.182591,-1.06027 0.354923,-1.4886 0.965658,-3.17702 2.010066,-4.32866 0.145958,-0.16094 0.328258,-0.28472 0.492385,-0.42708 z" />
    <path
       style="fill:#ff0000;stroke-width:0.264583"
       id="path19"
       d="m 111.63967,179.89215 c -1.13681,2.25053 -2.55842,4.34768 -3.92547,6.46217 0,0 3.03717,1.77664 3.03717,1.77664 v 0 c 1.40487,-2.11111 2.86525,-4.18204 4.2871,-6.28158 z" />
    <path
       style="fill:#ff0000;stroke-width:0.264583"
       id="path20"
       d="m 95.552431,221.32044 c 0.233106,-0.0683 0.463865,-0.14512 0.699315,-0.2048 4.722024,-1.19678 9.506684,-2.14343 14.245774,-3.26766 2.27484,-0.53965 4.54161,-1.11272 6.81241,-1.66908 5.564,-1.77048 9.99951,-2.99029 15.31823,-5.44794 4.00229,-1.84936 8.05495,-4.35546 11.62601,-6.96112 3.16032,-2.30596 3.71891,-2.99986 6.30371,-5.51307 0.45532,-0.63584 1.06244,-1.18678 1.36597,-1.90753 1.06787,-2.53571 -3.35361,-3.6612 -4.65438,-3.98145 -1.04409,-0.25705 -2.14658,0.28632 -3.16121,0.64231 -4.52442,1.58744 -7.64764,3.7875 -11.85398,6.27215 -2.89237,2.02283 -5.89652,3.89457 -8.67712,6.0685 -3.93762,3.07851 -7.69314,6.38476 -11.45736,9.67304 -7.50731,6.55811 -19.497989,17.78444 -26.954519,24.13834 -11.449069,9.75606 -15.030852,12.1426 -26.714754,20.83785 -8.254137,5.8194 -16.649269,11.47334 -25.418042,16.49658 -2.546924,1.45905 -5.195929,2.86494 -7.902094,4.02434 -0.733631,0.31433 -1.495433,0.55833 -2.24315,0.83749 -0.497329,0.11329 -0.982038,0.32888 -1.491988,0.33986 -0.314902,0.007 -1.189866,-0.41127 -0.899836,-0.28843 0.906459,0.38397 1.793008,1.29702 2.751549,1.07276 0.553003,-0.12938 -0.168641,-1.14565 -0.05846,-1.70281 0.471139,-2.38236 1.656975,-4.45976 2.691217,-6.61805 1.011198,-1.40652 1.880331,-2.92698 3.033594,-4.21957 5.648185,-6.33062 13.520494,-11.15234 21.09397,-14.76429 3.241463,-1.54593 6.521923,-3.0599 9.948031,-4.13637 3.708924,-1.16532 7.585146,-1.70937 11.377721,-2.56405 3.924808,-0.29189 7.838929,-0.84106 11.774426,-0.87567 7.709395,-0.0678 14.753125,0.90123 22.242765,2.61074 7.14286,1.63035 12.89419,3.80113 19.82772,6.1088 3.29971,1.09823 6.60638,2.17546 9.90958,3.26319 9.54448,2.88466 19.26531,5.40597 29.20908,6.44898 2.79369,0.29306 5.60565,0.42577 8.41445,0.46049 6.17374,0.0763 7.21295,-0.2739 12.97677,-1.08892 1.51961,-0.53121 3.11112,-0.88965 4.55882,-1.59357 3.18052,-1.54648 5.86964,-4.26262 7.3733,-7.45791 0.92378,-1.96305 0.81549,-2.53223 1.00961,-4.56509 -0.0744,-0.60361 -0.0818,-1.21934 -0.22329,-1.81084 -0.30656,-1.28157 -1.05923,-2.57694 -2.05179,-3.451 -1.20084,-1.05746 -5.3818,-3.06247 -5.41785,-3.08184 0,0 2.93025,2.32174 2.93025,2.32174 v 0 c -0.66112,-0.43312 -1.33176,-0.85203 -1.98335,-1.29934 -0.31792,-0.21825 0.67659,0.37617 0.98184,0.61181 1.04123,0.80382 1.88375,2.03169 2.2633,3.28993 0.17288,0.57311 0.21085,1.17852 0.31628,1.76778 -0.0974,1.98782 0.0369,2.55806 -0.79203,4.50415 -1.34953,3.16821 -3.90633,5.86215 -6.96349,7.44582 -1.38172,0.71576 -2.90972,1.10428 -4.36458,1.65642 -5.52699,0.93362 -6.58797,1.32494 -12.54176,1.33547 -2.75231,0.005 -5.5094,-0.0997 -8.24887,-0.36537 -9.88518,-0.95864 -19.54412,-3.46492 -29.01659,-6.34751 -3.30625,-1.09058 -6.61529,-2.17273 -9.91874,-3.27175 -7.11691,-2.36772 -12.42722,-4.39455 -19.76379,-6.02328 -7.470689,-1.65851 -14.448736,-2.56066 -22.127426,-2.47004 -3.944839,0.0466 -7.868076,0.59086 -11.802115,0.88629 -3.847531,0.83002 -7.777573,1.34243 -11.542593,2.49005 -3.460002,1.05466 -6.764557,2.57966 -10.050484,4.09181 -3.123605,1.43745 -6.186381,3.01767 -9.157938,4.7477 -4.579281,2.66604 -9.084948,5.78656 -12.811809,9.59886 -1.231548,1.25976 -2.190266,2.76 -3.285399,4.14002 -0.762778,1.47669 -2.602028,4.84018 -3.123976,6.55309 -0.178677,0.5864 -0.545969,1.34864 -0.168101,1.83132 0.281794,0.35993 2.953013,3.15192 4.691856,2.85718 0.479891,-0.0813 0.921856,-0.31277 1.382783,-0.46916 0.687483,-0.32912 1.38909,-0.63027 2.062449,-0.9874 4.62372,-2.45232 8.9491,-5.48545 13.218578,-8.4918 8.157649,-5.74421 9.564605,-6.90774 18.146236,-13.33318 11.686407,-9.18919 14.442656,-11.19644 26.208373,-21.1604 4.805836,-4.0699 9.503563,-8.26582 14.274006,-12.37714 4.41713,-3.80682 8.7535,-7.71166 13.28858,-11.37716 10.47686,-8.468 11.10104,-8.52088 21.26415,-14.98324 4.49496,-2.33027 7.74656,-4.42393 12.56162,-5.66654 1.0694,-0.27597 2.50289,0.452 3.29838,-0.31414 0.49672,-0.4784 -0.86528,-1.32401 -1.55362,-1.36626 -1.12249,-0.0689 3.08131,4.54965 -0.88827,3.25476 -2.36204,2.62397 -2.83812,3.3398 -5.84531,5.72811 -3.46381,2.75096 -7.26435,5.23382 -11.26991,7.12082 -5.72294,2.69606 -9.40564,3.52352 -15.46026,5.3058 -2.33328,0.51054 -4.66034,1.05037 -6.99983,1.53163 -5.25725,1.08148 -10.559025,1.92991 -15.842096,2.86744 z" />
    <path
       style="fill:#ff0000;stroke-width:0.264583"
       id="path21"
       d="m 114.4208,245.55131 c 1.24626,0.23649 2.51635,0.31259 3.78354,0.29575 0.9749,-0.013 2.31251,-0.0658 3.27028,-0.36739 0.36467,-0.11483 0.68256,-0.34467 1.02383,-0.51701 0.13853,-0.25569 0.37607,-0.47897 0.41558,-0.76708 0.12411,-0.90501 -0.86456,-1.86751 -1.55269,-2.27471 -1.32971,-0.78686 -2.65819,-1.58562 -4.05668,-2.24251 -0.23004,-0.10806 -0.50812,-0.014 -0.76218,-0.021 -0.21827,0.11304 -0.46798,0.17938 -0.6548,0.33911 -0.88816,0.75943 -1.05978,2.44744 -0.79263,3.51185 0.069,0.2751 0.21628,0.52441 0.32442,0.78661 1.35466,1.54119 0.81972,1.05983 4.35704,2.62586 0.20691,0.0916 0.81096,-0.25664 1.01013,-0.28946 0.11499,-0.0189 0.45169,0.0913 0.34738,0.0394 -0.8277,-0.41233 -1.68943,-0.75249 -2.53415,-1.12873 2.30574,2.20113 4.97507,3.7988 7.86861,5.18835 0.75664,0.36336 1.58306,0.61211 2.4172,0.7057 1.98638,0.22288 4.61119,-0.25795 6.55144,-0.52019 1.78853,-0.27104 3.55161,-0.68279 5.33403,-0.987 0.59146,-0.10095 1.1821,-0.22551 1.78109,-0.26049 0.41057,-0.024 0.82736,0.005 1.23089,0.0846 0.27999,0.0551 1.0396,0.46338 0.79633,0.31421 -0.90976,-0.55784 -1.86928,-1.03013 -2.80393,-1.5452 1.29438,1.00574 2.27885,1.81209 4.29908,2.16016 0.52639,0.0907 0.8787,-0.61446 1.26624,-0.98205 2.05298,-1.94726 4.7441,-5.1123 6.29006,-7.17207 1.76204,-2.34766 3.36587,-4.81002 5.0488,-7.21503 2.48594,-3.68912 6.96601,-10.21676 9.37143,-14.2079 0.75089,-1.24587 2.5432,-2.47572 2.05931,-3.84753 -2.21959,-6.29249 -7.31973,0.64013 -8.30364,1.61155 -2.17608,2.14846 -4.25555,4.39261 -6.38333,6.58891 -4.88297,5.13976 -9.69573,10.2166 -14.59939,15.33523 -2.07038,2.16116 -4.12981,4.33309 -6.2266,6.46863 -2.47677,2.52254 -5.56612,5.77908 -8.5563,7.91707 -0.64229,0.45923 -1.40153,0.72762 -2.10229,1.09142 -1.87057,-1.76917 0.49737,0.68977 3.0455,0.0618 0.78959,-0.1946 0.90685,-1.36405 1.48624,-1.93467 0.74579,-0.7345 1.57458,-1.39349 2.45999,-1.95182 2.76567,-1.744 3.80135,-1.81825 6.92559,-2.75515 2.84577,-0.54166 5.78445,-0.94724 8.65912,-0.33763 0.48666,0.10321 1.81092,0.77993 1.41245,0.48209 -2.59021,-1.93608 -2.46662,-2.28491 -2.62265,-1.12143 -0.31343,0.0608 -0.6227,0.14975 -0.9403,0.18249 -3.8333,0.39516 -7.70113,-0.0168 -11.54035,0.27227 -0.78468,0.0591 -1.56047,0.20434 -2.34071,0.30651 -0.37926,0.22428 -1.03621,0.24411 -1.13779,0.67286 -0.10524,0.44422 0.30148,0.95375 0.6994,1.17749 1.94508,1.09364 4.00592,2.01513 6.13976,2.66789 1.55872,0.47683 3.22072,0.513 4.84098,0.69122 5.1493,0.56641 7.46272,0.56503 12.72307,0.77904 5.60634,0.12494 11.21938,0.17366 16.82379,-0.0651 1.82902,-0.0779 4.26889,-0.2067 6.13467,-0.53827 0.61502,-0.10929 1.21127,-0.30594 1.8169,-0.45891 0,0 -3.00987,-2.06577 -3.00987,-2.06577 v 0 c -0.55935,0.16728 -1.10814,0.37518 -1.67806,0.50183 -1.79369,0.39862 -4.01282,0.60547 -5.79714,0.73665 -5.48037,0.40289 -10.98212,0.43387 -16.47304,0.28839 -5.21307,-0.2655 -7.84793,-0.27837 -12.9616,-0.99787 -1.71126,-0.24078 -3.37086,-0.90719 -5.09869,-0.93847 -0.28213,-0.005 0.28656,0.776 0.0133,0.84643 -0.37543,0.0968 -0.96166,-0.2061 -1.00132,-0.59177 -0.0373,-0.36222 0.58195,-0.43782 0.87293,-0.65674 0.73653,-0.11799 1.46682,-0.28546 2.20958,-0.35399 1.84304,-0.17005 4.48259,-0.1273 6.29786,-0.10895 0.81432,0.008 4.50467,0.13103 5.58523,-0.0326 0.44553,-0.0675 0.84532,-0.31245 1.26799,-0.46868 0.49302,-2.10843 0.4306,-0.87365 -3.7709,-2.99936 -0.772,-0.39059 -2.79774,-0.50059 -3.45302,-0.49749 -2.72027,0.0129 -3.57786,0.29925 -6.36143,0.79161 -1.239,0.37642 -2.51167,0.65601 -3.71702,1.12925 -2.23919,0.87916 -4.20753,1.99566 -5.99432,3.60603 -0.63966,0.57652 -1.83524,1.09147 -1.7032,1.94241 0.52629,3.39159 1.4229,3.38325 3.17976,3.66298 0.58701,-0.45843 1.21577,-0.86791 1.76101,-1.37529 2.50261,-2.32885 5.70742,-6.01145 7.84854,-8.37583 6.74149,-7.44446 13.47637,-14.90659 20.77089,-21.82274 2.32428,-2.06407 4.54518,-4.25078 6.97284,-6.1922 1.44712,-1.15728 3.61452,-1.53029 4.62551,-3.08314 0.41037,-0.63031 -0.97102,-2.11622 -1.55168,-1.63817 -1.13022,0.93051 -0.82628,2.82524 -1.48077,4.13477 -2.47871,4.95951 -6.06462,9.77764 -9.17654,14.29734 -4.47994,5.64152 -5.00653,6.78075 -9.73547,11.27701 -0.86213,0.81971 -1.78534,1.5774 -2.7432,2.28288 -0.39502,0.29094 -1.54981,0.27253 -1.2981,0.69364 0.49701,0.83153 4.02985,2.81875 2.46768,1.53517 -1.28283,-0.73676 -2.53328,-1.53299 -3.84847,-2.21029 -0.50719,-0.26119 -1.50922,-0.21272 -1.98929,-0.15037 -0.5697,0.074 -1.12812,0.2183 -1.68994,0.33827 -4.94833,1.05666 0.63159,-0.0576 -5.16779,1.07201 -2.3516,0.28712 -4.20892,0.68125 -6.58894,0.30906 -0.83804,-0.13106 -1.57052,-0.73724 -2.41664,-0.79702 -0.43709,-0.0309 1.42378,1.01019 1.10968,0.70468 -0.83407,-0.81128 -2.01833,-1.21785 -2.69395,-2.21974 -1.38587,-0.86772 -2.72932,-1.8072 -4.1576,-2.60317 -0.0961,-0.0536 -0.71662,0.16356 -0.79681,0.1741 -0.15046,0.0198 -0.5762,-0.0917 -0.45527,-2e-5 0.87212,0.66126 1.83578,1.19299 2.77335,1.75762 0.19831,0.11943 -0.36854,-0.28023 -0.55282,-0.42035 -0.12986,-0.2295 -0.30177,-0.43985 -0.3896,-0.68848 -0.30168,-0.85397 -0.23494,-2.4711 0.58647,-3.05321 0.15331,-0.10865 0.35465,-0.1243 0.53197,-0.18645 1.59344,0.25374 1.01143,0.24873 -1.83105,-1.44055 -0.27245,-0.16192 0.54191,0.33232 0.788,0.53204 0.2635,0.21385 0.92604,0.8088 0.95684,1.24752 0.0148,0.21029 -0.15479,0.39216 -0.23219,0.58823 -0.2985,0.1572 -0.57384,0.36986 -0.89549,0.47158 -0.92998,0.29412 -2.23784,0.3424 -3.18055,0.32861 -1.31562,-0.0192 -2.66727,-0.13688 -3.91057,-0.59414 z" />
    <path
       style="fill:#a02c2c;stroke-width:0.215281"
       d="m 119.50037,169.70438 c 2.1637,-14.27156 -8.45305,-18.72237 -17.2662,-20.00245 -5.960056,-0.86567 -14.4957,3.01609 -18.930396,7.11021 l -22.927621,21.16678 c 0,0 55.524957,15.46584 59.124217,-8.27454 z"
       id="path22"
       sodipodi:nodetypes="zccz"
       inkscape:path-effect="#path-effect28"
       inkscape:original-d="M 119.50037,169.70438 C 123.09963,145.964 91.333502,149.39909 91.333502,149.39909 l -30.957349,28.57983 c 0,0 55.524957,15.46584 59.124217,-8.27454 z" />
    <path
       style="fill:#a02c2c;stroke-width:0.264583"
       d="m 81.150557,159.72491 c 0,0 6.808549,-5.70447 0,0 z"
       id="path23" />
    <path
       style="fill:#a02c2c;stroke-width:0.264583"
       d="m 82.254645,159.17286 c 0,0 -12.881039,-4.04833 0,0 z"
       id="path24" />
    <path
       style="fill:#a02c2c;stroke-width:0.264583"
       d="m 82.254645,157.33271 c 0,0 10.672862,-15.82528 0,0 z"
       id="path25" />
    <text
       xml:space="preserve"
       style="font-size:3.175px;text-align:start;writing-mode:lr-tb;direction:ltr;text-anchor:start;fill:#a02c2c;stroke-width:0.264583"
       x="17.849442"
       y="70.293678"
       id="text30"><tspan
         sodipodi:role="line"
         id="tspan30"
         style="stroke-width:0.264583"
         x="17.849442"
         y="70.293678" /></text>
    <path
       id="path62"
       style="opacity:1;fill:#008080;stroke-width:0.255836"
       d="M 73.605843 257.62097 L 73.605843 277.54895 L 96.737248 277.54895 L 96.737248 269.00839 L 107.76862 269.00839 L 107.76862 257.62097 L 73.605843 257.62097 z M 107.76862 269.00839 L 107.76862 277.54895 L 96.737248 277.54895 L 96.737248 289.29242 L 116.66523 289.29242 L 116.66523 269.00839 L 107.76862 269.00839 z " />
    <path
       d="m 139.60319,283.36155 h -11.03137 v 8.54056 h 11.03137 z"
       style="opacity:1;fill:#a02c2c;stroke-width:0.255836"
       id="path64" />
    <path
       id="path65"
       style="opacity:1;fill:#ff00ff;stroke-width:0.264583"
       d="m 183.4627,188.79933 0.73639,44.53165 z"
       sodipodi:nodetypes="ccc" />
    <path
       style="opacity:1;fill:#00ff9d;fill-opacity:1;stroke-width:0.264583"
       d="m 164.32528,187.78717 v 14.7672"
       id="path68" />
    <g
       id="g78"
       transform="translate(1.391472,0.3624843)">
      <path
         style="opacity:1;fill:#00bfff;fill-opacity:1;stroke:#000000;stroke-width:0.264583;stroke-opacity:1"
         d="m 160.71014,187.68502 -2.64263,3.49622 2.64263,3.65992 m -3.1718,-3.39533"
         id="path70"
         sodipodi:nodetypes="ccc" />
      <path
         style="fill:#ff7600;fill-opacity:1;stroke:#000000;stroke-width:0.264583;stroke-opacity:1"
         d="m 160.71208,187.70879 2.64263,3.49622 -2.64263,3.65992 m 3.1718,-3.39533"
         id="path70-2"
         sodipodi:nodetypes="ccc" />
    </g>
    <rect
       style="fill:#beb8fc;fill-opacity:1;stroke:#6d09ca;stroke-width:0.264583;stroke-opacity:1"
       id="rect1"
       width="16.404167"
       height="16.404167"
       x="145.61705"
       y="5.2592573"
       transform="rotate(45)" />
    <path
       sodipodi:type="star"
       style="fill:url(#linearGradient14);fill-opacity:1;stroke:#6d09ca;stroke-width:0.264583;stroke-opacity:1"
       id="path12"
       inkscape:flatsided="true"
       sodipodi:sides="3"
       sodipodi:cx="90.222916"
       sodipodi:cy="109.86823"
       sodipodi:r1="8.3723488"
       sodipodi:r2="4.1861744"
       sodipodi:arg1="0.52359878"
       sodipodi:arg2="1.5707963"
       inkscape:rounded="0"
       inkscape:randomized="0"
       d="m 97.473582,114.05441 -14.501333,0 7.250667,-12.55853 z"
       inkscape:transform-center-y="-2.0930872"
       transform="translate(25.582378,29.170313)" />
    <rect
       style="fill:#beb8fc;fill-opacity:1;stroke:#6d09ca;stroke-width:0.264583;stroke-opacity:1"
       id="rect7"
       width="16.404167"
       height="16.404167"
       x="111.56419"
       y="110.73789" />
  </g>
</svg>
